<?xml version="1.0" encoding="UTF-8"?>
<svg id="Layer_2" xmlns="http://www.w3.org/2000/svg" viewBox="0 0 2750.21 130.51">
  <defs>
    <style>
      .cls-1 {
        fill: #fff;
        stroke: #231f20;
        stroke-miterlimit: 10;
        stroke-width: 2px;
      }
    </style>
  </defs>
  <g id="Layer_1-2" data-name="Layer_1">
    <g>
      <path class="cls-1" d="M1,2.08h23.04v41.58L55,2.26h31.14l-39.06,52.2,56.34,73.8h-30.78l-41.22-52.92-7.38,9.9v43.02H1V2.08Z"/>
      <path class="cls-1" d="M153.46,1.9h16.74l46.26,126.18h-26.1l-10.44-28.62h-36l-10.62,28.62h-25.74L153.46,1.9ZM170.2,72.64l-8.28-23.76-8.64,23.76h16.92Z"/>
      <path class="cls-1" d="M237.34,29.08h-23.04V2.08h68.94v27h-23.04v99h-22.86V29.08Z"/>
      <path class="cls-1" d="M337.78,73.18L293.86,2.08h28.44l27,43.74,27-43.74h28.26l-43.92,71.1v54.9h-22.86v-54.9Z"/>
      <path class="cls-1" d="M510.39,29.08h-23.04V2.08h68.94v27h-23.04v99h-22.86V29.08Z"/>
      <path class="cls-1" d="M576.09,1.9h23.04v68.4h33.12V1.9h22.86v126.18h-22.86v-30.78h-33.12v30.78h-23.04V1.9Z"/>
      <path class="cls-1" d="M670.59,65.26c0-34.92,24.12-63.18,53.64-63.18s53.64,28.26,53.64,63.18-23.94,63-53.64,63-53.64-28.26-53.64-63ZM724.23,101.62c17.1,0,30.96-16.38,30.96-36.36s-13.86-36.54-30.96-36.54-30.96,16.38-30.96,36.54,13.86,36.36,30.96,36.36Z"/>
      <path class="cls-1" d="M791.55,2.08h19.62l35.46,56.34,35.46-56.34h19.44v126h-22.86V54.46l-32.04,47.88-32.04-47.88v73.62h-23.04V2.08Z"/>
      <path class="cls-1" d="M926.01,2.08h21.96c39.24,0,59.04,21.78,59.04,48.78s-22.32,48.6-49.86,48.6h-8.1v28.62h-23.04V2.08ZM955.71,72.64c15.48,0,28.44-10.08,28.44-21.78s-12.96-21.24-28.44-21.24h-6.66v43.02h6.66Z"/>
      <path class="cls-1" d="M1021.41,86.68l21.42-7.74s3.6,23.76,18,23.76c10.26,0,16.02-5.94,16.02-12.78,0-16.2-13.5-19.44-19.26-21.6-11.52-4.32-28.08-7.56-28.08-30.78,0-19.8,15.66-36.54,33.3-36.54,22.32,0,31.86,21.78,34.56,29.16l-21.06,10.44s-4.32-12.42-13.5-12.42c-6.3,0-11.16,3.96-11.16,8.1,0,7.02,12.6,10.62,17.28,11.88,20.7,5.94,30.96,20.7,30.96,41.04s-14.76,40.32-38.16,40.32c-34.2,0-40.32-42.84-40.32-42.84Z"/>
      <path class="cls-1" d="M1114.47,65.26c0-34.92,24.12-63.18,53.64-63.18s53.64,28.26,53.64,63.18-23.94,63-53.64,63-53.64-28.26-53.64-63ZM1168.11,101.62c17.1,0,30.96-16.38,30.96-36.36s-13.86-36.54-30.96-36.54-30.96,16.38-30.96,36.54,13.86,36.36,30.96,36.36Z"/>
      <path class="cls-1" d="M1235.43,1.9h19.08l49.5,75.78V1.9h22.86v126.18h-19.08l-49.32-75.78v75.78h-23.04V1.9Z"/>
      <path class="cls-1" d="M1423.35,2.08h23.04v41.58l30.96-41.4h31.14l-39.06,52.2,56.34,73.8h-30.78l-41.22-52.92-7.38,9.9v43.02h-23.04V2.08Z"/>
      <path class="cls-1" d="M1575.81,1.9h16.74l46.26,126.18h-26.1l-10.44-28.62h-36l-10.62,28.62h-25.74L1575.81,1.9ZM1592.55,72.64l-8.28-23.76-8.64,23.76h16.92Z"/>
      <path class="cls-1" d="M1659.69,29.08h-23.04V2.08h68.94v27h-23.04v99h-22.86V29.08Z"/>
      <path class="cls-1" d="M1760.12,73.18l-43.92-71.1h28.44l27,43.74,27-43.74h28.26l-43.92,71.1v54.9h-22.86v-54.9Z"/>
      <path class="cls-1" d="M1932.74,29.08h-23.04V2.08h68.94v27h-23.04v99h-22.86V29.08Z"/>
      <path class="cls-1" d="M1998.44,1.9h23.04v68.4h33.12V1.9h22.86v126.18h-22.86v-30.78h-33.12v30.78h-23.04V1.9Z"/>
      <path class="cls-1" d="M2092.94,65.26c0-34.92,24.12-63.18,53.64-63.18s53.64,28.26,53.64,63.18-23.94,63-53.64,63-53.64-28.26-53.64-63ZM2146.58,101.62c17.1,0,30.96-16.38,30.96-36.36s-13.86-36.54-30.96-36.54-30.96,16.38-30.96,36.54,13.86,36.36,30.96,36.36Z"/>
      <path class="cls-1" d="M2213.9,2.08h19.62l35.46,56.34,35.46-56.34h19.44v126h-22.86V54.46l-32.04,47.88-32.04-47.88v73.62h-23.04V2.08Z"/>
      <path class="cls-1" d="M2348.36,2.08h21.96c39.24,0,59.04,21.78,59.04,48.78s-22.32,48.6-49.86,48.6h-8.1v28.62h-23.04V2.08ZM2378.06,72.64c15.48,0,28.44-10.08,28.44-21.78s-12.96-21.24-28.44-21.24h-6.66v43.02h6.66Z"/>
      <path class="cls-1" d="M2443.76,86.68l21.42-7.74s3.6,23.76,18,23.76c10.26,0,16.02-5.94,16.02-12.78,0-16.2-13.5-19.44-19.26-21.6-11.52-4.32-28.08-7.56-28.08-30.78,0-19.8,15.66-36.54,33.3-36.54,22.32,0,31.86,21.78,34.56,29.16l-21.06,10.44s-4.32-12.42-13.5-12.42c-6.3,0-11.16,3.96-11.16,8.1,0,7.02,12.6,10.62,17.28,11.88,20.7,5.94,30.96,20.7,30.96,41.04s-14.76,40.32-38.16,40.32c-34.2,0-40.32-42.84-40.32-42.84Z"/>
      <path class="cls-1" d="M2536.82,65.26c0-34.92,24.12-63.18,53.64-63.18s53.64,28.26,53.64,63.18-23.94,63-53.64,63-53.64-28.26-53.64-63ZM2590.46,101.62c17.1,0,30.96-16.38,30.96-36.36s-13.86-36.54-30.96-36.54-30.96,16.38-30.96,36.54,13.86,36.36,30.96,36.36Z"/>
      <path class="cls-1" d="M2657.78,1.9h19.08l49.5,75.78V1.9h22.86v126.18h-19.08l-49.32-75.78v75.78h-23.04V1.9Z"/>
    </g>
  </g>
</svg>