<?xml version="1.0" encoding="UTF-8"?>
<svg id="Layer_2" xmlns="http://www.w3.org/2000/svg" viewBox="0 0 47 47">
  <defs>
    <style>
      .cls-1 {
        fill: #fff;
        stroke: #000;
        stroke-miterlimit: 10;
      }
    </style>
  </defs>
  <g id="Layer_4">
    <path class="cls-1" d="M36.91.5H10.08C4.79.5.5,4.79.5,10.08v26.83c0,5.29,4.29,9.58,9.58,9.58h26.83c5.29,0,9.58-4.29,9.58-9.58V10.08c0-5.29-4.29-9.58-9.58-9.58ZM28.35,38.04c-.78.15-1.02-.33-1.02-.74v-4.21c0-1.43-.5-2.36-1.05-2.84,3.42-.38,7-1.68,7-7.56,0-1.68-.6-3.04-1.58-4.11.16-.39.68-1.95-.15-4.06,0,0-1.29-.41-4.21,1.57-1.23-.34-2.54-.51-3.84-.52-1.3,0-2.61.17-3.84.52-2.93-1.98-4.22-1.57-4.22-1.57-.83,2.11-.31,3.67-.15,4.06-.98,1.07-1.58,2.44-1.58,4.11,0,5.87,3.58,7.19,6.99,7.58-.44.38-.84,1.06-.97,2.05-.88.39-3.09,1.07-4.46-1.28,0,0-.81-1.47-2.35-1.58,0,0-1.49-.02-.11.93,0,0,1.01.47,1.7,2.24,0,0,.89,2.74,5.15,1.81v2.85c0,.4-.25.88-1.01.74-6.09-2.03-10.49-7.77-10.49-14.55,0-8.47,6.86-15.33,15.33-15.33s15.33,6.86,15.33,15.33c0,6.77-4.39,12.52-10.48,14.55Z"/>
  </g>
</svg>