<?xml version="1.0" encoding="UTF-8"?>
<svg id="Layer_2" data-name="Layer 2" xmlns="http://www.w3.org/2000/svg" viewBox="0 0 798.65 225.53">
  <defs>
    <style>
      .cls-1 {
        fill: #404137;
      }

      .cls-2 {
        fill: #83cd29;
      }
    </style>
  </defs>
  <g id="Layer_1-2" data-name="Layer 1">
    <g>
      <path class="cls-2" d="M734.68,80.04c-1.94,0-3.83.4-5.51,1.35l-52.95,30.58c-3.43,1.97-5.51,5.7-5.51,9.67v61.05c0,3.96,2.08,7.69,5.51,9.67l13.83,7.98c6.72,3.31,9.2,3.26,12.25,3.26,9.95,0,15.63-6.04,15.63-16.53v-60.26c0-.85-.74-1.46-1.57-1.46h-6.63c-.85,0-1.57.61-1.57,1.46v60.26c0,4.65-4.84,9.33-12.7,5.4l-14.39-8.43c-.51-.28-.9-.77-.9-1.35v-61.05c0-.58.39-1.17.9-1.46l52.84-30.46c.49-.28,1.09-.28,1.57,0l52.84,30.47c.5.3.9.86.9,1.46v61.05c0,.58-.29,1.18-.79,1.46l-52.95,30.47c-.45.27-1.08.27-1.57,0l-13.6-8.09c-.42-.23-.93-.23-1.35,0-3.75,2.13-4.46,2.38-7.98,3.6-.87.3-2.18.77.45,2.25l17.76,10.45c1.67.97,3.58,1.47,5.51,1.46,1.93.01,3.83-.49,5.51-1.46l52.95-30.47c3.43-1.99,5.51-5.7,5.51-9.67v-61.05c0-3.97-2.08-7.69-5.51-9.67l-52.95-30.58c-1.66-.95-3.56-1.35-5.51-1.35h0Z"/>
      <path class="cls-2" d="M748.84,123.66c-15.08,0-24.06,6.42-24.06,17.09,0,11.57,8.91,14.76,23.38,16.19,17.31,1.7,18.66,4.24,18.66,7.65,0,5.91-4.71,8.43-15.85,8.43-14,0-17.07-3.49-18.1-10.45-.12-.75-.7-1.35-1.46-1.35h-6.86c-.84,0-1.57.73-1.57,1.58,0,8.91,4.85,19.45,27.99,19.45,16.75,0,26.42-6.58,26.42-18.1s-7.81-14.49-24.06-16.64c-16.42-2.17-17.99-3.24-17.99-7.08,0-3.17,1.33-7.42,13.49-7.42,10.87,0,14.88,2.34,16.53,9.67.14.69.75,1.24,1.46,1.24h6.86c.42,0,.83-.26,1.12-.56.29-.32.49-.69.45-1.12-1.06-12.62-9.47-18.55-26.42-18.55h0Z"/>
    </g>
    <path class="cls-1" d="M423.38,0c-.59,0-1.17.15-1.69.45-1.04.61-1.68,1.72-1.69,2.92v86c0,.84-.39,1.6-1.12,2.02-.73.42-1.63.42-2.36,0l-14.05-8.09c-2.09-1.21-4.66-1.21-6.75,0l-56.1,32.38c-2.1,1.21-3.37,3.54-3.37,5.96v64.75c0,2.42,1.28,4.63,3.37,5.85l56.1,32.38c2.09,1.21,4.66,1.21,6.75,0l56.1-32.38c2.09-1.2,3.38-3.43,3.37-5.85V24.96c0-2.47-1.33-4.75-3.48-5.96L425.07.34c-.52-.29-1.1-.34-1.69-.34h0ZM62.51,80.83c-1.07.04-2.07.23-3.03.79L3.37,114C1.28,115.2,0,117.43,0,119.84l.11,86.9c0,1.21.62,2.33,1.69,2.92,1.04.62,2.34.62,3.37,0l33.28-19.11c2.11-1.25,3.48-3.43,3.48-5.85v-40.58c0-2.42,1.27-4.64,3.37-5.85l14.16-8.21c1.02-.6,2.19-.91,3.37-.9,1.16,0,2.34.29,3.37.9l14.17,8.21c2.09,1.2,3.38,3.43,3.37,5.85v40.58c0,2.42,1.39,4.61,3.48,5.85l33.28,19.11c1.04.62,2.34.62,3.37,0,1.04-.6,1.69-1.72,1.69-2.92l.11-86.9c.01-2.41-1.28-4.65-3.37-5.85l-56.1-32.38c-.95-.56-1.96-.74-3.03-.79h-.67ZM566.61,81.62c-1.17,0-2.32.3-3.37.9l-56.1,32.38c-2.09,1.2-3.38,3.43-3.37,5.85v64.75c0,2.44,1.37,4.64,3.48,5.85l55.65,31.7c2.05,1.17,4.56,1.26,6.63.11l33.73-18.77c1.07-.59,1.79-1.7,1.8-2.92.01-1.21-.63-2.33-1.69-2.92l-56.44-32.38c-1.06-.6-1.8-1.82-1.8-3.04v-20.23c0-1.21.75-2.32,1.8-2.92l17.54-10.12c1.04-.6,2.33-.6,3.37,0l17.54,10.12c1.05.6,1.69,1.72,1.69,2.92v15.96c0,1.21.64,2.32,1.69,2.92,1.05.61,2.32.61,3.37,0l33.62-19.56c2.09-1.21,3.37-3.44,3.37-5.85v-15.62c0-2.41-1.28-4.63-3.37-5.85l-55.76-32.38c-1.03-.59-2.19-.9-3.37-.9h0ZM398.87,129.96c.29,0,.64.07.9.22l19.22,11.13c.52.3.9.86.9,1.46v22.26c0,.6-.37,1.16-.9,1.46l-19.22,11.13c-.52.3-1.16.3-1.69,0l-19.22-11.13c-.52-.3-.9-.86-.9-1.46v-22.26c0-.6.38-1.16.9-1.46l19.22-11.13c.24-.15.51-.22.79-.22h0s0,0,0,0Z"/>
    <path class="cls-2" d="M231.03,81.28c-1.17,0-2.33.3-3.37.9l-56.1,32.27c-2.1,1.21-3.37,3.54-3.37,5.96v64.75c0,2.42,1.28,4.63,3.37,5.85l56.1,32.38c2.09,1.21,4.66,1.21,6.75,0l56.1-32.38c2.09-1.2,3.38-3.43,3.37-5.85v-64.75c0-2.42-1.27-4.75-3.37-5.96l-56.1-32.27c-1.03-.59-2.19-.9-3.37-.9ZM566.49,139.07c-.22,0-.47,0-.67.11l-10.79,6.3c-.41.23-.67.66-.68,1.13v12.37c0,.47.27.89.68,1.13l10.79,6.18c.4.23.84.23,1.24,0l10.79-6.18c.41-.23.66-.66.68-1.12v-12.37c-.01-.47-.27-.89-.68-1.12l-10.79-6.3c-.2-.12-.34-.11-.56-.11h0Z"/>
  </g>
</svg>