<?xml version="1.0" encoding="UTF-8"?>
<svg id="svg222" width="2679.819" height="1317.201" clip-rule="evenodd" fill-rule="evenodd" stroke-linejoin="round" stroke-miterlimit="2" version="1.1" viewBox="0 0 2679.819 1317.201" xml:space="preserve" xmlns="http://www.w3.org/2000/svg">
    <g id="g220" transform="translate(-506.4087 -509.6254)" fill="#0b572e">
        
        
        
        
        
        <g id="g202" transform="scale(4.16667)">
            <path id="path200" d="m724.346 240.635c0.049 0.072 11.822 16.697 11.822 16.697l-7.774 8.466c-0.776 0.843-1.629 1.838-2.571 2.931-7.148 8.296-19.113 22.181-38.126 26.612-3.969 0.924-7.883 1.393-11.635 1.393-5.919 0-10.814-1.124-14.738-2.655-4.423 3.178-8.864 5.556-14.331 7.789-7.636 3.119-15.013 4.7-21.921 4.7-13.963 0-25.535-6.312-32.585-17.775-1.598-2.597-2.915-5.387-3.953-8.34l-38.888 81.16c-3.747 7.824-10.746 13.444-19.203 15.416l-71.82 16.736 27.424-57.24c-8.025-1.442-14.978-5.216-20.369-11.036-13.286 15.631-34.504 31.336-56.304 36.417-6.568 1.529-12.956 2.305-18.985 2.305-16.953 0-31.137-6.054-40.701-17.176-1.172 3.653-2.627 7.325-4.387 10.999-10.259 21.408-34.957 49.837-94.362 63.7-12.738 2.973-38.755 6.048-60.243 6.048h-7.328l-49.496-69.069 31.879-66.55c6.93-14.445-4.689-20.315-7.105-19.752l47.676-99.478 25.302-5.901c29.583-7.145 54.057-10.78 72.632-10.78 2.06 0 4.073 0.046 5.983 0.137 27.38 1.303 48.853 12.731 60.464 32.179 6.863 11.496 9.562 24.972 8.11 39.028 9.912-9.168 24.676-20.062 42.05-24.11 5.758-1.342 11.316-2.022 16.52-2.022 16.817 0 30.522 7.054 38.587 19.862 1.511 2.4 2.771 4.957 3.799 7.615 39.012-52.343 95.169-62.403 97.864-62.857l8.772-1.478 24.417 34.197c39.027-52.764 95.519-62.89 98.223-63.344l8.772-1.478 34.489 48.306zm40.348-59.423-3.674-5.147-34.489-48.306-3.89-5.449-6.603 1.112-8.772 1.478c-2.687 0.452-55.096 9.828-95.909 56.226l-16.237-22.742-3.891-5.449-6.602 1.113-8.773 1.477c-2.658 0.448-54.015 9.634-94.635 54.795-10.288-12.662-25.61-19.564-43.836-19.564-6.019 0-12.395 0.774-18.949 2.301-11.134 2.595-21.209 7.598-29.847 13.277-1.533-8.205-4.439-16.033-8.735-23.228-13.5-22.614-38.042-35.883-69.106-37.361-2.07-0.099-4.253-0.15-6.49-0.15-19.418 0-44.698 3.728-75.126 11.076l-30.209 7.046-56.45 117.788 5.359-1.249c2.521-0.587 4.985 0.266 6.602 2.281s1.916 4.609 0.8 6.938l-33.694 70.319 56.357 78.644h12.801c22.259 0 49.342-3.217 62.665-6.327 61.581-14.371 88.615-44.076 100.474-67.3 10.173 6.611 22.604 10.108 36.554 10.108 6.844 0 14.049-0.87 21.413-2.584 21.159-4.932 40.722-18.069 54.877-32.167 1.454 0.943 2.946 1.829 4.501 2.606l-22.214 46.364-9.638 20.117 21.725-5.062 71.82-16.735c11.64-2.715 21.273-10.449 26.43-21.221l30.462-63.575c9.008 9.378 21.411 14.614 35.307 14.614 8.304 0 17.042-1.849 25.97-5.496 4.472-1.826 8.307-3.732 11.927-5.946 4.169 1.069 8.553 1.608 13.093 1.608 4.569 0 9.301-0.563 14.065-1.673 22.416-5.224 36.332-21.374 43.807-30.05l0.254-0.294c0.804-0.933 1.499-1.739 2.088-2.379l7.779-8.472 5.851-6.371-5-7.06s-4.714-6.656-8.184-11.557l25.24-52.672z" fill="#0b572e" fill-rule="nonzero"/>
        </g>
        <g id="g206" transform="scale(4.16667)">
            <path id="path204" d="m528.932 279.949c-14.652 5.982-16.419-3.678-9.987-17.102 10.959-22.872 32.361-29.595 32.359-29.595 0 0-22.37 46.696-22.372 46.697zm51.064-99.835s-69.466 10.855-102.782 79.935c-19.283 39.984-4.287 74.366 32.822 59.336l-25.775 53.797 42.952-10.009c4.205-0.98 7.737-3.816 9.602-7.709l67.619-141.122z" fill="#eb1c24" fill-rule="nonzero"/>
        </g>
        <g id="g210" transform="scale(4.16667)">
            <path id="path208" d="m660.343 249.323c-14.652 5.982-16.419-3.678-9.987-17.102 10.959-22.872 32.36-29.595 32.359-29.595 0 0-22.37 46.696-22.372 46.697zm51.091-14.67 24.412-50.937-24.439-34.228s-69.598 10.792-102.782 79.935c-19.098 39.793-4.242 74.48 32.99 59.273 7.304-2.983 12.051-6.112 18.427-11.986 0 0 7.52 8.714 24.426 4.774 16.907-3.94 27.387-18.713 33.446-25.311l-4.921-6.95c-3.061-4.224-4.392-8.657-1.559-14.57z" fill="#eb1c24" fill-rule="nonzero"/>
        </g>
        <g id="g214" transform="scale(4.16667)">
            <path id="path212" d="m411.938 260.425c0.054-0.055 0.098-0.091 0.15-0.143 3.183-3.524 7.648-6.669 11.14-7.366 6.646-1.327 7.822 4.538 6.045 8.068-5.76 11.457-25.934 14.068-25.934 14.068s3.3-9.215 8.599-14.627zm53.083 0.326c9.468-19.76-0.387-53.873-41.352-44.327-26.516 6.179-52.341 34.404-63.855 58.434-22.261 46.459-0.911 83.183 45.907 72.273 21.282-4.959 44.495-23.694 54.843-40.02l-8.205-11.495s-11.821 11.09-28.336 14.938c-15.59 3.633-22.714-3.357-24.417-9.662l-0.078-0.234c5.723-0.229 10.578-0.832 13.336-1.475 15.343-3.575 40.995-15.137 52.157-38.432z" fill="#eb1c24" fill-rule="nonzero"/>
        </g>
        <g id="g218" transform="scale(4.16667)">
            <path id="path216" d="m293.813 249.309c-5.969 12.238-21.981 16.286-31.517 16.289l15.652-32.578c15.677-3.653 21.632 4.464 15.865 16.289zm-33.838 84.57c-7.242 14.849-26.671 19.761-38.242 19.764l18.992-39.528c19.022-4.432 26.248 5.416 19.25 19.764zm49.588-163.278c-18.45-0.878-44.844 3.075-74.708 10.287l-18.652 4.351-33.619 70.143s2.032-0.374 3.195-0.566c6.495-1.075 11.217 5.085 8.421 10.921l-43.858 91.532 40.335 56.285c20.305 2e-3 45.333-2.945 57.03-5.675 46.008-10.738 73.152-31.758 84.764-55.992 11.967-24.977 7.748-50.085-14.625-66.093 0 0 27.882-11.203 40.151-36.81 18.886-39.415-1.451-76.147-48.434-78.383z" fill="#eb1c24" fill-rule="nonzero"/>
        </g>
    </g>
</svg>
