<?xml version="1.0" encoding="utf-8"?>
<!-- Generator: Adobe Illustrator 27.0.0, SVG Export Plug-In . SVG Version: 6.00 Build 0)  -->
<svg version="1.1" id="Layer_1" xmlns="http://www.w3.org/2000/svg" xmlns:xlink="http://www.w3.org/1999/xlink" x="0px" y="0px"
	 viewBox="0 0 90.5 27.8" style="enable-background:new 0 0 90.5 27.8;" xml:space="preserve">
<g>
	<path d="M2.9034,8.6366L4.134,7.3392C4.4276,7.0298,5.5281,5.866,5.5281,5.4634c0-0.4395-0.6786-0.4588-0.9757-0.4588V4.653
		C5.0798,4.667,5.6371,4.7145,6.1716,4.7321C6.6796,4.7145,7.214,4.667,7.7291,4.653v0.3516
		C6.7394,5.0432,6.5566,5.3562,5.9149,6.0593L4.2219,7.9492l3.5265,3.4492c0.4764,0.4483,0.6048,0.7261,1.2658,0.8298v0.3657
		c-0.3692-0.0229-0.7524-0.0633-1.1181-0.0949c-0.3868,0.0316-0.7542,0.0721-1.1409,0.0949L3.2709,8.8651L2.9034,9.229v1.1357
		c0,1.2218-0.1758,1.758,1.2869,1.8564v0.3657c-0.6786-0.0229-1.3748-0.0633-2.0586-0.0949
		c-0.6803,0.0316-1.3607,0.0721-2.0727,0.0949v-0.3639c1.3748-0.0914,1.2833-0.5274,1.2833-1.758V3.2114
		c0-0.4237,0-1.4064-0.2022-1.758C0.9046,1.0332,0.3842,1.0332-0.05,0.9787V0.6271l2.9534-0.5784L2.9034,8.6366z"/>
	<path d="M15.9495,11.0081c-0.5098,0.494-1.2956,1.0548-2.0059,1.0548c-0.7436,0-1.1656-0.6505-1.1656-1.3255
		c0-1.4697,2.0744-2.1922,3.1644-2.7196L15.9495,11.0081z M13.9806,8.4414c-1.1691,0.5274-2.9112,1.1902-2.9112,2.739
		c0,1.0319,0.9388,1.6174,1.9074,1.6174c1.1286,0,2.1887-0.6083,3.0484-1.315c0.165,0.7483,0.8163,1.2896,1.5822,1.315
		c0.6768,0,1.3572-0.6223,1.6508-1.2306l-0.3516-0.1899c-0.2039,0.2602-0.3832,0.5819-0.7542,0.5819
		c-0.7173,0-0.6399-1.3537-0.6399-1.8125v-3.029c0-2.1096-0.9405-2.637-2.9675-2.637c-0.9335,0-3.3683,0.2479-3.3683,1.6068
		c-0.0085,0.3533,0.271,0.6466,0.6243,0.6552c0.0264,0.0006,0.0527-0.0004,0.0789-0.003c0.4571,0,0.7032-0.3991,0.7348-0.8016
		c0.0545-0.9704,0.7999-1.0548,1.7123-1.0548c1.4943,0,1.6068,0.879,1.6068,2.136c0,0.1987,0.0334,0.4465-0.1477,0.5274
		L13.9806,8.4414z"/>
	<path d="M21.0301,5.2806V4.9518c0.9124-0.5274,1.8336-1.2675,2.2239-2.3153h0.2742V4.783h2.0903v0.4975h-2.0903v5.2423
		c0,0.8333,0.1653,1.7,1.1374,1.7c0.6417,0,0.9722-0.3709,1.3185-0.8298l0.3323,0.2479c-0.3323,0.879-1.2464,1.1585-2.1272,1.1585
		c-1.3255,0-2.2256-0.5063-2.2256-1.8881V5.2858L21.0301,5.2806z"/>
	<path d="M30.1699,7.1511c0.2197-1.2007,0.763-2.2625,2.1395-2.2625c1.1532,0,1.7773,0.7489,1.7773,1.8916
		c0,0.4624-0.6065,0.3709-0.9001,0.3709H30.1699z M35.1872,10.8639c-0.5503,0.7419-1.3748,1.3589-2.31,1.3589
		c-1.9584,0-2.8743-1.9443-2.8743-3.6918l0.0756-0.879h5.2529c0.1758,0,0.4536,0.0738,0.4536-0.16
		c0-1.9971-1.6982-3.0027-3.4896-3.0027c-2.3821,0-4.133,2.0797-4.133,4.3827c0,2.3487,1.8775,3.9326,4.1471,3.9326
		c1.2747,0.0445,2.4918-0.5322,3.2646-1.547L35.1872,10.8639z"/>
	<path d="M43.223,12.6764h-0.1846l-0.0756-2.637h0.3709c0.2901,1.1902,0.9194,2.3416,2.2678,2.3416
		c0.8052,0,1.54-0.4043,1.54-1.2781c0-1.0548-1.0548-1.4837-1.8529-1.8828c-1.0548-0.5573-2.1993-1.1585-2.1993-2.5421
		c0-1.2728,1.0126-2.1957,2.2748-2.1957c0.6193,0.0053,1.2285,0.1578,1.7773,0.4448L47.502,4.5h0.2215l-0.0404,2.2854h-0.3639
		c-0.327-0.9212-0.7331-1.9004-1.8828-1.9004c-0.5977,0-1.162,0.3516-1.162,1.0179c0,0.9581,0.9968,1.2869,1.6947,1.6754
		c1.2587,0.661,2.4067,1.1409,2.4067,2.8022c0,1.5031-1.271,2.4155-2.6774,2.4155c-0.7235,0.0092-1.4302-0.218-2.0129-0.6469
		L43.223,12.6764z"/>
	<path d="M53.008,8.1707c0-0.7489,0-1.4064,0.3832-2.0569c0.3808-0.6597,1.0877-1.0629,1.8494-1.0548
		c2.0023,0,2.5403,1.8951,2.5403,3.5652s-0.5907,3.5933-2.5772,3.5933c-0.6575,0-1.3712-0.2408-1.7949-0.7419
		c-0.4237-0.501-0.4008-1.3818-0.4008-2.0024V8.1707z M52.783,4.4789c-0.8456,0.1951-1.758,0.4307-2.6651,0.559v0.3727
		c0.5872,0,1.09-0.0721,1.2306,0.596c0.0914,0.4202,0.0914,1.7,0.0914,2.2116v7.2078c0,1.2042,0.1108,1.6631-1.2658,1.758v0.3516
		c0.7313-0.0193,1.4697-0.0615,2.2098-0.0809c0.6786,0.0193,1.3537,0.0615,2.0393,0.0809v-0.3516
		c-1.5488-0.0756-1.4064-0.552-1.4064-1.8723v-3.5599c0.7022,0.6891,1.6535,1.0645,2.637,1.0407
		c2.3135,0,3.9608-1.8705,3.9608-4.1102c0-2.3838-1.6472-4.1858-4.0715-4.1858c-1.1919-0.0123-2.0393,0.5274-2.7565,1.5048
		L52.783,4.4789z"/>
	<path d="M66.8223,11.0081c-0.5151,0.494-1.2992,1.0548-2.0094,1.0548c-0.7454,0-1.1656-0.6505-1.1656-1.3255
		c0-1.4697,2.0797-2.1922,3.1749-2.7196V11.0081z M64.8464,8.4414c-1.1673,0.5274-2.9095,1.1902-2.9095,2.739
		c0,1.0319,0.9335,1.6174,1.9127,1.6174c1.1269,0,2.1869-0.6083,3.0431-1.315c0.1678,0.7466,0.8175,1.2865,1.5822,1.315
		c0.6803,0,1.3554-0.6223,1.6508-1.2306l-0.3516-0.1899c-0.2022,0.2602-0.3885,0.5819-0.7559,0.5819
		c-0.7138,0-0.6399-1.3537-0.6399-1.8125v-3.029c0-2.1096-0.937-2.637-2.971-2.637c-0.9282,0-3.3595,0.2479-3.3595,1.6068
		c-0.0085,0.3533,0.271,0.6466,0.6243,0.6552c0.0264,0.0006,0.0527-0.0004,0.0789-0.003c0.4588,0,0.6926-0.3991,0.7313-0.8016
		c0.0492-0.9704,0.7999-1.0548,1.7123-1.0548c1.4978,0,1.6068,0.879,1.6068,2.136c0,0.1987,0.0369,0.4465-0.1494,0.5274
		L64.8464,8.4414z"/>
	<path d="M78.2177,9.5454c0,1.4486-0.5274,2.7601-2.1764,2.7601c-1.9848,0-2.5174-1.9145-2.5174-3.567
		c0-1.6033,0.5274-3.6742,2.5174-3.6742c1.0548,0,2.1764,0.7032,2.1764,1.8758V9.5454z M81.2889,12.2053v-0.3709
		c-0.596,0-1.0847,0.0334-1.3273-0.603c-0.1758-0.4747-0.1758-1.4064-0.1758-1.9109V0.047l-2.9376,0.5784V0.977
		c1.3167,0.0352,1.3765,0.6276,1.3765,1.7316v2.9042c-0.661-0.7735-1.6156-1.1286-2.6264-1.1286
		c-2.3223,0-3.901,2.0147-3.901,4.2543c0,2.2854,1.598,4.061,3.901,4.061c1.2552,0,2.0832-0.4395,2.8673-1.3941
		c0.0457,0.481,0.168,0.9516,0.3622,1.3941L81.2889,12.2053z"/>
	<path d="M84.9297,7.1511c0.2162-1.2007,0.7682-2.2625,2.136-2.2625c1.1533,0,1.7773,0.7489,1.7773,1.8916
		c0,0.4624-0.6012,0.3709-0.8913,0.3709H84.9297z M89.9382,10.8639c-0.545,0.7419-1.3712,1.3589-2.303,1.3589
		c-1.9584,0-2.8761-1.9443-2.8761-3.6918l0.0738-0.879h5.2599c0.1758,0,0.4571,0.0738,0.4571-0.16
		c0-1.9971-1.707-3.0027-3.5019-3.0027c-2.3768,0-4.126,2.0797-4.126,4.3827c0,2.3487,1.8758,3.9326,4.1436,3.9326
		c1.3818,0,2.3961-0.4887,3.2593-1.547L89.9382,10.8639z"/>
	<path d="M2.9034,8.6366L4.134,7.3392C4.4276,7.0298,5.5281,5.866,5.5281,5.4634c0-0.4395-0.6786-0.4588-0.9757-0.4588V4.653
		C5.0798,4.667,5.6371,4.7145,6.1716,4.7321C6.6796,4.7145,7.214,4.667,7.7291,4.653v0.3516
		C6.7394,5.0432,6.5566,5.3562,5.9149,6.0593L4.2219,7.9492l3.5265,3.4492c0.4764,0.4483,0.6048,0.7261,1.2658,0.8298v0.3657
		c-0.3692-0.0229-0.7524-0.0633-1.1181-0.0949c-0.3868,0.0316-0.7542,0.0721-1.1409,0.0949L3.2709,8.8651L2.9034,9.229v1.1357
		c0,1.2218-0.1758,1.758,1.2869,1.8564v0.3657c-0.6786-0.0229-1.3748-0.0633-2.0586-0.0949
		c-0.6803,0.0316-1.3607,0.0721-2.0727,0.0949v-0.3639c1.3748-0.0914,1.2833-0.5274,1.2833-1.758V3.2114
		c0-0.4237,0-1.4064-0.2022-1.758C0.9046,1.0332,0.3842,1.0332-0.05,0.9787V0.6271l2.9534-0.5784L2.9034,8.6366z"/>
	<path d="M15.9495,11.0081c-0.5098,0.494-1.2956,1.0548-2.0059,1.0548c-0.7436,0-1.1656-0.6505-1.1656-1.3255
		c0-1.4697,2.0744-2.1922,3.1644-2.7196L15.9495,11.0081z M13.9806,8.4414c-1.1691,0.5274-2.9112,1.1902-2.9112,2.739
		c0,1.0319,0.9388,1.6174,1.9074,1.6174c1.1286,0,2.1887-0.6083,3.0484-1.315c0.165,0.7483,0.8163,1.2896,1.5822,1.315
		c0.6768,0,1.3572-0.6223,1.6508-1.2306l-0.3516-0.1899c-0.2022,0.2602-0.3815,0.5819-0.7524,0.5819
		c-0.7173,0-0.6399-1.3537-0.6399-1.8125v-3.029c0-2.1096-0.9405-2.637-2.9675-2.637c-0.9335,0-3.3683,0.2479-3.3683,1.6068
		c-0.0085,0.3533,0.271,0.6466,0.6243,0.6552c0.0264,0.0006,0.0527-0.0004,0.0789-0.003c0.4571,0,0.7032-0.3991,0.7331-0.8016
		c0.0563-0.9704,0.8016-1.0548,1.714-1.0548c1.4943,0,1.6068,0.879,1.6068,2.136c0,0.1987,0.0334,0.4465-0.1477,0.5274
		L13.9806,8.4414z"/>
	<path d="M21.0301,5.2806V4.9518c0.9124-0.5274,1.8336-1.2675,2.2239-2.3153h0.2742V4.783h2.0903v0.4975h-2.0903v5.2423
		c0,0.835,0.1653,1.7,1.1374,1.7c0.6417,0,0.9722-0.3709,1.3185-0.8298l0.3323,0.2479c-0.3323,0.879-1.2464,1.1585-2.1272,1.1585
		c-1.3255,0-2.2256-0.5063-2.2256-1.8881V5.2858L21.0301,5.2806z"/>
	<path d="M30.1699,7.1511c0.218-1.2007,0.763-2.2625,2.1395-2.2625c1.1532,0,1.7773,0.7489,1.7773,1.8916
		c0,0.4624-0.6065,0.3709-0.9001,0.3709H30.1699z M35.1872,10.8639c-0.5503,0.7419-1.3748,1.3589-2.31,1.3589
		c-1.9584,0-2.8761-1.9443-2.8761-3.6918l0.0774-0.879h5.2529c0.1758,0,0.4536,0.0738,0.4536-0.16
		c0-1.9971-1.6982-3.0027-3.4896-3.0027c-2.3838,0-4.133,2.0797-4.133,4.3827c0,2.3487,1.8775,3.9326,4.1471,3.9326
		c1.2747,0.0445,2.4918-0.5322,3.2646-1.547L35.1872,10.8639z"/>
	<path d="M43.223,12.6764h-0.1846l-0.0756-2.637h0.3709c0.2883,1.1902,0.9194,2.3416,2.2678,2.3416
		c0.8052,0,1.54-0.4043,1.54-1.2781c0-1.0548-1.0548-1.4837-1.8529-1.8828c-1.0548-0.5573-2.1993-1.1585-2.1993-2.5421
		c0-1.2728,1.0126-2.1957,2.2748-2.1957c0.6193,0.0053,1.2285,0.1578,1.7773,0.4448L47.502,4.5h0.2215l-0.0404,2.2854h-0.3639
		c-0.327-0.9212-0.7331-1.9004-1.8828-1.9004c-0.5977,0-1.162,0.3516-1.162,1.0179c0,0.9599,0.9968,1.2869,1.6947,1.6754
		c1.2587,0.661,2.4067,1.1409,2.4067,2.8022c0,1.5031-1.271,2.4155-2.6774,2.4155c-0.7235,0.0092-1.4302-0.218-2.0129-0.6469
		L43.223,12.6764z"/>
	<path d="M53.008,8.1707c0-0.7489,0-1.4064,0.3832-2.0569c0.3808-0.6597,1.0877-1.0629,1.8494-1.0548
		c2.0023,0,2.5403,1.8951,2.5403,3.5652s-0.5907,3.5933-2.5772,3.5933c-0.6575,0-1.3712-0.2408-1.7949-0.7419
		c-0.4237-0.501-0.4008-1.3818-0.4008-2.0024V8.1707z M52.783,4.4789c-0.8474,0.1951-1.758,0.4307-2.6651,0.559v0.3727
		c0.5872,0,1.09-0.0721,1.2306,0.596c0.0914,0.4202,0.0914,1.7,0.0914,2.2116v7.2078c0,1.2042,0.1108,1.6631-1.2658,1.758v0.3516
		c0.7313-0.0193,1.4697-0.0615,2.2098-0.0809c0.6768,0.0193,1.3537,0.0615,2.0393,0.0809v-0.3516
		c-1.5488-0.0756-1.4064-0.552-1.4064-1.8723v-3.5599c0.7022,0.6891,1.6535,1.0645,2.637,1.0407
		c2.3135,0,3.9608-1.8705,3.9608-4.1102c0-2.3838-1.6472-4.1858-4.0715-4.1858c-1.1937-0.0123-2.0393,0.5274-2.7565,1.5048
		L52.783,4.4789z"/>
	<path d="M66.8223,11.0081c-0.5151,0.494-1.2992,1.0548-2.0094,1.0548c-0.7454,0-1.1656-0.6505-1.1656-1.3255
		c0-1.4697,2.0797-2.1922,3.1749-2.7196V11.0081z M64.8464,8.4414c-1.1673,0.5274-2.9095,1.1902-2.9095,2.739
		c0,1.0319,0.9335,1.6174,1.9127,1.6174c1.1269,0,2.1869-0.6083,3.0431-1.315c0.1673,0.7469,0.8173,1.2871,1.5822,1.315
		c0.6786,0,1.3537-0.6223,1.6508-1.2306l-0.3516-0.1899c-0.2022,0.2602-0.3885,0.5819-0.7559,0.5819
		c-0.7138,0-0.6399-1.3537-0.6399-1.8125v-3.029c0-2.1096-0.937-2.637-2.971-2.637c-0.9282,0-3.3595,0.2479-3.3595,1.6068
		c-0.0085,0.3533,0.271,0.6466,0.6243,0.6552c0.0264,0.0006,0.0527-0.0004,0.0789-0.003c0.4588,0,0.6926-0.3991,0.7313-0.8016
		c0.0492-0.9704,0.7999-1.0548,1.7123-1.0548c1.4978,0,1.6068,0.879,1.6068,2.136c0,0.1987,0.0369,0.4465-0.1494,0.5274
		L64.8464,8.4414z"/>
	<path d="M78.2159,9.5454c0,1.4486-0.5274,2.7601-2.1746,2.7601c-1.9848,0-2.5174-1.9145-2.5174-3.567
		c0-1.6033,0.5274-3.6742,2.5174-3.6742c1.0548,0,2.1746,0.7032,2.1746,1.8758V9.5454z M81.2889,12.2053v-0.3709
		c-0.5977,0-1.0864,0.0334-1.3273-0.603c-0.1758-0.4747-0.1758-1.4064-0.1758-1.9109V0.047l-2.9358,0.5784V0.977
		c1.3167,0.0352,1.3747,0.6276,1.3747,1.7316v2.9042c-0.6592-0.7735-1.6138-1.1286-2.6264-1.1286
		c-2.3223,0-3.8992,2.0147-3.8992,4.2543c0,2.2854,1.598,4.061,3.8992,4.061c1.257,0,2.085-0.4395,2.869-1.3941
		c0.0457,0.481,0.168,0.9516,0.3622,1.3941L81.2889,12.2053z"/>
	<path d="M84.9297,7.1511c0.2162-1.2007,0.7682-2.2625,2.136-2.2625c1.1533,0,1.7773,0.7489,1.7773,1.8916
		c0,0.4624-0.603,0.3709-0.8913,0.3709H84.9297z M89.9382,10.8639c-0.545,0.7419-1.3712,1.3589-2.303,1.3589
		c-1.9584,0-2.8778-1.9443-2.8778-3.6918l0.0756-0.879h5.2599c0.1758,0,0.4571,0.0738,0.4571-0.16
		c0-1.9971-1.707-3.0027-3.5019-3.0027c-2.3768,0-4.126,2.0797-4.126,4.3827c0,2.3487,1.8758,3.9326,4.1436,3.9326
		c1.38,0,2.3944-0.4887,3.2593-1.547L89.9382,10.8639z"/>
	<path d="M37.4357,23.8467L36.8116,25.93c-0.2004,0.6135-0.4131,1.2148-0.6241,1.823h-0.2549l-1.3466-4.1207
		c-0.0615-0.1758-0.1758-0.5819-0.2883-0.7032c-0.1266-0.1758-0.3235-0.1899-0.5467-0.2057v-0.1758
		c0.3692,0,0.7384,0.0211,1.1075,0.0299c0.3692,0.0088,0.7647-0.0229,1.1392-0.0299v0.1758
		c-0.2479,0.0246-0.6891,0.0246-0.6891,0.3762c0.0536,0.3176,0.1306,0.6308,0.2303,0.937l0.8069,2.6247l1.213-4.1119h0.2461
		l1.2605,4.0434l0.5274-1.6736c0.1037-0.3305,0.4096-1.3871,0.4096-1.6894c0-0.4764-0.2742-0.4764-0.6628-0.5151v-0.1758
		c0.2795,0,0.5538,0.0211,0.8333,0.0299s0.5274-0.0229,0.7981-0.0299v0.1758c-0.5696-0.0141-0.6786,0.5854-0.7981,1.0161
		l-1.2693,4.0117h-0.2655L37.4357,23.8467z"/>
	<path d="M48.4337,26.6208c0,0.7261,0.0264,0.763,0.7595,0.8263v0.1758c-0.385,0-0.7682-0.0176-1.148-0.0334
		c-0.3973,0.0158-0.7841,0.0316-1.1761,0.0334v-0.1758c0.7419-0.0633,0.7735-0.1108,0.7735-0.8263V25.668l-0.7032-1.2113
		c-0.0844-0.1512-0.668-1.3185-0.937-1.5822c-0.1301-0.1547-0.2549-0.1125-0.443-0.1459v-0.1758
		c0.3516,0,0.7032,0.0211,1.0442,0.0299c0.3411,0.0088,0.7155-0.0229,1.0741-0.0299v0.1758c-0.1635,0-0.5731-0.0141-0.5731,0.2479
		c0.0224,0.1931,0.0918,0.3778,0.2022,0.5379l0.9968,1.8353l0.4887-0.7753c0.1653-0.2725,0.7595-1.2482,0.7595-1.5207
		c0-0.2725-0.3516-0.3006-0.5573-0.3252v-0.1758c0.2813,0,0.5467,0.0211,0.8227,0.0299c0.276,0.0088,0.4993-0.0229,0.7489-0.0299
		v0.1758c-0.443,0.0387-0.6012,0.3411-0.8122,0.6803l-1.3203,2.1869V26.6208z"/>
	<path d="M67.0755,25.7102v0.9106c0,0.7261,0.0176,0.763,0.7612,0.8263v0.1758c-0.3797,0-0.7436-0.0176-1.1198-0.0334
		c-0.3956,0.0158-0.7788,0.0316-1.1673,0.0334v-0.1758c0.2496,0,0.5608,0,0.661-0.2602c0.0756-0.2057,0.0756-0.77,0.0756-1.0214
		v-2.1448c0-0.2567,0-0.8175-0.0756-1.0232c-0.1002-0.2637-0.4114-0.2637-0.661-0.2637v-0.1758c0.3692,0,0.7313,0.0211,1.097,0.0299
		c0.4008,0,0.7893-0.0229,1.1902-0.0299v0.1758c-0.7436,0.0633-0.7612,0.109-0.7612,0.8245v1.8652
		c0.3657-0.3745,1.8424-1.9338,1.8424-2.3786c0-0.3252-0.3516-0.2866-0.5661-0.3112v-0.1758c0.3041,0,0.6012,0.0211,0.9071,0.0299
		c0.2655,0,0.5274-0.0229,0.7981-0.0299v0.1758c-0.4184,0-0.5274,0.109-0.777,0.429L68.0494,24.68l1.0706,1.2306
		c0.0897,0.1108,0.879,1.1673,1.2464,1.431c0.1357,0.087,0.2965,0.1265,0.4571,0.1125v0.1758c-0.4078,0-0.8175-0.0176-1.2183-0.0334
		c-0.392,0.0158-0.7753,0.0316-1.162,0.0334v-0.1758c0.1336,0,0.6469,0.0264,0.6469-0.2303c0-0.16-0.4852-0.7278-0.6118-0.879
		l-0.9335-1.1234L67.0755,25.7102z"/>
	<path d="M26.0545,22.5546L26.0545,22.5546c-0.2707,0-0.5151,0.0193-0.77,0.0281c-0.2549,0.0088-0.5274-0.0211-0.7911-0.0281l0,0
		h-0.0984v0.1758c0.3797,0.0633,0.5942,0.0334,0.6803,0.4588c0.0571,0.3911,0.0801,0.7863,0.0686,1.1814v2.0182l-3.1398-3.8324
		h-0.0949l0,0c-0.1881,0-0.3762,0.0193-0.5643,0.0281c-0.225,0-0.4465-0.0211-0.6751-0.0281l0,0H20.573v0.1758
		c0.4096,0,0.596,0.1266,0.8333,0.4588v2.8128c0.0107,0.3527-0.0099,0.7057-0.0615,1.0548
		c-0.0756,0.3305-0.3621,0.3516-0.6575,0.3762v0.1758h0.0984l0,0c0.2707,0,0.5274-0.0158,0.8052-0.0299
		c0.2725,0.0141,0.5538,0.0281,0.8263,0.0299l0,0h0.0967v-0.1758c-0.2795-0.0281-0.5274-0.0123-0.6592-0.3164
		c-0.1178-0.2567-0.1178-0.8333-0.1178-1.1163v-2.4383l2.9077,3.4984c0.1758,0.2197,0.3393,0.4377,0.5028,0.6364h0.334v-3.291
		c0-0.3094,0.0123-1.097,0.0897-1.3414c0.1037-0.334,0.2971-0.3076,0.5837-0.3411v-0.1758L26.0545,22.5546z"/>
	<path d="M28.6862,24.0348c0-0.2461,0-0.814-0.0738-1.0161c-0.1002-0.2654-0.4149-0.2654-0.6593-0.2654v-0.2057h3.799v1.1515
		h-0.1758c-0.1477-0.8931-0.5397-0.9458-1.3537-0.9458h-0.5467c-0.2391,0-0.2022-0.0246-0.2022,0.3094v1.816
		c1.0548,0.0475,1.2042-0.3832,1.2482-0.937h0.1758c0,0.3411-0.0105,0.6926-0.0246,1.0372
		c0.0141,0.3147,0.0158,0.6364,0.0246,0.9511h-0.1758c-0.1055-0.8069-0.5098-0.8438-1.2482-0.8438v1.2535
		c0,0.2338,0,0.596,0.1389,0.7753c0.1969,0.2672,0.6768,0.2795,0.9792,0.2778c0.7929-0.0176,1.3132-0.1213,1.4064-1.0302h0.1758
		L32.102,27.593h-4.1489v-0.1758c0.2444,0,0.559,0,0.6592-0.2584c0.0628-0.3378,0.0876-0.6816,0.0738-1.0249L28.6862,24.0348z"/>
	<path d="M37.4357,23.8467L36.8116,25.93c-0.2004,0.6135-0.4131,1.2148-0.6241,1.823h-0.2549l-1.3466-4.1207
		c-0.0615-0.1758-0.1758-0.5819-0.2883-0.7032c-0.1266-0.1758-0.3235-0.1899-0.5467-0.2057v-0.1758
		c0.3692,0,0.7384,0.0211,1.1075,0.0299c0.3692,0.0088,0.7647-0.0229,1.1392-0.0299v0.1758
		c-0.2479,0.0246-0.6891,0.0246-0.6891,0.3762c0.0536,0.3176,0.1306,0.6308,0.2303,0.937l0.8069,2.6247l1.213-4.1119h0.2461
		l1.2605,4.0434l0.5274-1.6736c0.1037-0.3305,0.4096-1.3871,0.4096-1.6894c0-0.4764-0.2742-0.4764-0.6628-0.5151v-0.1758
		c0.2795,0,0.5538,0.0211,0.8333,0.0299s0.5274-0.0229,0.7981-0.0299v0.1758c-0.5696-0.0141-0.6786,0.5854-0.7981,1.0161
		l-1.2693,4.0117h-0.2655L37.4357,23.8467z"/>
	<path d="M48.4337,26.6208c0,0.7261,0.0264,0.763,0.7595,0.8263v0.1758c-0.385,0-0.7682-0.0176-1.148-0.0334
		c-0.3973,0.0158-0.7841,0.0316-1.1761,0.0334v-0.1758c0.7419-0.0633,0.7735-0.1108,0.7735-0.8263V25.668l-0.7032-1.2113
		c-0.0844-0.1512-0.668-1.3185-0.937-1.5822c-0.1301-0.1547-0.2549-0.1125-0.443-0.1459v-0.1758
		c0.3516,0,0.7032,0.0211,1.0442,0.0299c0.3411,0.0088,0.7155-0.0229,1.0741-0.0299v0.1758c-0.1635,0-0.5731-0.0141-0.5731,0.2479
		c0.0224,0.1931,0.0918,0.3778,0.2022,0.5379l0.9968,1.8353l0.4887-0.7753c0.1653-0.2725,0.7595-1.2482,0.7595-1.5207
		c0-0.2725-0.3516-0.3006-0.5573-0.3252v-0.1758c0.2813,0,0.5467,0.0211,0.8227,0.0299c0.276,0.0088,0.4993-0.0229,0.7489-0.0299
		v0.1758c-0.443,0.0387-0.6012,0.3411-0.8122,0.6803l-1.3203,2.1869V26.6208z"/>
	<path d="M54.5832,22.6689c1.3501,0,1.8248,1.264,1.8248,2.4102c0,1.1462-0.4131,2.4207-1.7773,2.4207
		c-1.4064,0-1.874-1.1954-1.874-2.3944C52.7566,23.9698,53.2559,22.6689,54.5832,22.6689z M54.5832,27.6985
		c1.5506,0,2.7794-1.0794,2.7794-2.6493c0-1.5154-1.2816-2.5843-2.7477-2.5843s-2.8128,1.1181-2.8128,2.637
		S53.0854,27.6985,54.5832,27.6985z"/>
	<path d="M60.5094,23.0556c0-0.0826,0-0.2303,0.0861-0.2795c0.1691-0.0133,0.339-0.0133,0.5081,0
		c0.6874,0,1.0671,0.4729,1.0671,1.1445c0,1.1093-0.7032,1.1286-1.6613,1.1286V23.0556z M61.6661,25.1213
		c0.763-0.0633,1.3871-0.4922,1.3871-1.3062c0-1.0653-0.879-1.264-1.758-1.264c-0.327,0-0.6522,0.0211-0.9792,0.0299
		c-0.4395,0-0.879-0.0229-1.315-0.0299v0.1758c0.2408,0,0.5678-0.0088,0.6522,0.2602c0.0585,0.3359,0.0815,0.6771,0.0686,1.0179
		v2.15c0.0126,0.3431-0.0103,0.6866-0.0686,1.0249c-0.0844,0.2602-0.4114,0.2602-0.6522,0.2602v0.1758
		c0.385,0,0.7665-0.0176,1.1497-0.0334c0.3657,0.0158,0.7313,0.0316,1.0847,0.0334v-0.1758c-0.2479,0-0.5643,0-0.6504-0.2602
		c-0.0791-0.2092-0.0791-0.777-0.0791-1.0249v-0.9019c0.4114,0,0.3833,0.0457,0.6294,0.3375l1.2798,1.5822l0.3516,0.4395
		c0.1899,0,0.3797-0.0176,0.5714-0.0334c0.2373,0.0158,0.4606,0.0316,0.6909,0.0334v-0.1758
		c-0.3903-0.0633-0.5098-0.1758-0.7489-0.4536L61.6661,25.1213z"/>
	<path d="M67.0755,25.7102v0.9106c0,0.7261,0.0176,0.763,0.7612,0.8263v0.1758c-0.3797,0-0.7436-0.0176-1.1198-0.0334
		c-0.3956,0.0158-0.7788,0.0316-1.1673,0.0334v-0.1758c0.2496,0,0.5608,0,0.661-0.2602c0.0756-0.2057,0.0756-0.77,0.0756-1.0214
		v-2.1448c0-0.2567,0-0.8175-0.0756-1.0232c-0.1002-0.2637-0.4114-0.2637-0.661-0.2637v-0.1758c0.3692,0,0.7313,0.0211,1.097,0.0299
		c0.4008,0,0.7893-0.0229,1.1902-0.0299v0.1758c-0.7436,0.0633-0.7612,0.109-0.7612,0.8245v1.8652
		c0.3657-0.3745,1.8424-1.9338,1.8424-2.3786c0-0.3252-0.3516-0.2866-0.5661-0.3112v-0.1758c0.3041,0,0.6012,0.0211,0.9071,0.0299
		c0.2655,0,0.5274-0.0229,0.7981-0.0299v0.1758c-0.4184,0-0.5274,0.109-0.777,0.429L68.0494,24.68l1.0706,1.2306
		c0.0897,0.1108,0.879,1.1673,1.2464,1.431c0.1357,0.087,0.2965,0.1265,0.4571,0.1125v0.1758c-0.4078,0-0.8175-0.0176-1.2183-0.0334
		c-0.392,0.0158-0.7753,0.0316-1.162,0.0334v-0.1758c0.1336,0,0.6469,0.0264,0.6469-0.2303c0-0.16-0.4852-0.7278-0.6118-0.879
		l-0.9335-1.1234L67.0755,25.7102z"/>
</g>
</svg>
