<svg version="1.1" id="Layer_1" xmlns="http://www.w3.org/2000/svg" x="0" y="0" viewBox="0 0 283 85" xml:space="preserve"><style>.st0{opacity:.8}.st1{opacity:.6}.st2{opacity:.4}</style><path d="M71.52.18L61.43 15.26v8.75h-6.18v-8.62L45.06.18h7.22l6.04 9.7 6.05-9.7zM87.14 18.29c4.94 0 6.22-1.29 6.22-6.2 0-4.9-1.28-6.2-6.22-6.2h-6.39v12.39h6.39zM74.43.18h12.89c7.67 0 12.58 4.8 12.58 11.91S94.99 24 87.32 24H74.43V.18zM129.19.18v23.83h-8.12l-9.43-13.48-1.76-2.69v16.17h-6.29V.18h8.46l8.88 12.18 1.97 3.34V.18zM140.7 5.86v3.2h12.09v5.52H140.7v3.74h12.71v5.69h-18.93V.18h18.93v5.68zM71.52 30.44L61.43 45.52v8.75h-6.18v-8.61L45.06 30.44h7.22l6.04 9.7 6.05-9.7zM107.22 30.44v23.83h-6.08V36.16l-1.39 4.49-4.97 13.62H86.9l-4.98-13.62-1.41-4.49v18.11h-6.08V30.44h10.74l4.22 13.11 1.45 4.76 1.45-4.73 4.18-13.14zM127.77 38.2c0-1.5-.8-2.42-2.8-2.42h-6.15v4.83h6.15c2.01.01 2.8-.7 2.8-2.41m6.54-.17c0 4.53-2.45 7.93-9.36 7.93h-6.12v8.31h-6.32V30.44h12.44c6.9 0 9.36 3.17 9.36 7.59M161.91 30.44v23.83h-6.32v-9.36h-11.85v9.36h-6.33V30.44h6.33v8.78h11.85v-8.78zM187.2 42.36c0-5.21-1.62-6.6-7.5-6.6-5.87 0-7.53 1.4-7.53 6.6s1.66 6.6 7.53 6.6c5.88 0 7.5-1.4 7.5-6.6m6.57.06c0 7.28-5.77 12.19-14.06 12.19-8.33 0-14.1-4.9-14.1-12.19 0-7.39 5.77-12.32 14.1-12.32 8.29 0 14.06 4.94 14.06 12.32M223.07 30.44v23.83h-8.12l-9.43-13.48-1.77-2.69v16.17h-6.29V30.44h8.47l8.88 12.19 1.97 3.33V30.44zM60.4 70.82h6.32c2.28 0 3.18-.65 3.18-2.42 0-1.67-.9-2.35-3.18-2.35H60.4v4.77zm6.01 5.17H60.4v8.54h-6.32V60.71h13.44c5.6 0 8.91 3.06 8.91 7.62 0 3.54-1.9 6.13-5.25 7.15l1.97 2.04 3.84 7.01H69.7l-3.29-8.54zM128.09 60.71v8.78h-11.86v-8.78h-6.32v23.82h6.32v-9.36h11.86v9.36h6.32V60.71zM139.66 60.71v23.82h18.93v-5.68h-12.71V75.1h12.09v-5.51h-12.09v-3.2h12.71v-5.68zM161.53 77.42l6.29-1.57c.45 3.17 2.87 3.78 5.74 3.78 2.73 0 4.63-.37 4.63-1.91 0-1.16-1-1.5-3.8-1.91l-4.94-.78c-3.63-.58-7.26-2.89-7.26-7.32 0-4.42 4.35-7.35 10.61-7.35 6.12 0 10.61 1.84 11.3 7.08l-5.87 1.6c-.31-3.06-2.52-3.34-5.46-3.34-2.42 0-4.22.37-4.22 1.84 0 1.39 1.35 1.67 4.22 2.04l4.32.61c4.56.61 7.39 3.4 7.39 6.71 0 4.76-4.25 7.96-11.02 7.96-6.4.01-11.07-2.23-11.93-7.44M186.41 60.71v5.51h7.98v18.31h6.32V66.22h7.99v-5.51zM218.96 70.82h6.32c2.28 0 3.18-.65 3.18-2.42 0-1.67-.9-2.35-3.18-2.35h-6.32v4.77zm6.01 5.17h-6.01v8.54h-6.32V60.71h13.44c5.6 0 8.91 3.06 8.91 7.62 0 3.54-1.9 6.13-5.25 7.15l1.97 2.04 3.84 7.01h-7.29l-3.29-8.54zM248.88 70l1.8-4.53 1.8 4.53 1.69 4.39h-6.98l1.69-4.39zm-2.56-9.29l-9.67 23.83h6.6l1.83-4.7h11.2l1.8 4.7h6.6l-9.61-23.83h-8.75zM252.47 30.44l-10.09 15.08v8.75h-6.18v-8.61L226 30.44h7.23l6.04 9.7 6.05-9.7zM182.19.18L172.1 15.26v8.75h-6.18v-8.62L155.73.18h7.22l6.05 9.7 6.04-9.7zM22.04 16.89l6.29-1.57c.45 3.17 2.87 3.78 5.74 3.78 2.73 0 4.63-.37 4.63-1.91 0-1.16-1-1.5-3.8-1.91l-4.94-.78c-3.63-.58-7.26-2.89-7.26-7.32S27.05-.17 33.31-.17c6.12 0 10.61 1.84 11.3 7.08l-5.88 1.6c-.31-3.06-2.52-3.34-5.46-3.34-2.42 0-4.22.37-4.22 1.84 0 1.39 1.35 1.67 4.22 2.04l4.32.61c4.56.61 7.39 3.4 7.39 6.71 0 4.77-4.25 7.97-11.02 7.97-6.39.01-11.05-2.24-11.92-7.45M12.54 7.19c0 4.04 3.03 6.32 6.32 7.13V.36c-3.87 1.03-6.32 3.51-6.32 6.83m-.66 9.7c.62 3.74 3.2 5.96 6.98 6.91v-6.54c-.34-.5-.58-1.14-.69-1.94l-6.29 1.57zM10.77 15.56l-5.35 1.33c.53 3.17 2.47 5.23 5.35 6.37v-7.7zm0-14.63c-2.9 1.23-4.69 3.44-4.69 6.26 0 3.36 2.1 5.48 4.69 6.57V.93zM22.04 47.16l6.29-1.57c.45 3.17 2.87 3.78 5.74 3.78 2.73 0 4.63-.37 4.63-1.91 0-1.16-1-1.5-3.8-1.91l-4.94-.78c-3.63-.58-7.26-2.89-7.26-7.32s4.35-7.35 10.61-7.35c6.12 0 10.61 1.84 11.3 7.08l-5.88 1.6c-.31-3.06-2.52-3.34-5.46-3.34-2.42 0-4.22.37-4.22 1.84 0 1.39 1.35 1.67 4.22 2.04l4.32.61c4.56.61 7.39 3.4 7.39 6.71 0 4.77-4.25 7.97-11.02 7.97-6.39 0-11.05-2.25-11.92-7.45M43.81 72.62c0-5.21-1.62-6.6-7.5-6.6-5.87 0-7.53 1.4-7.53 6.6 0 5.21 1.66 6.6 7.53 6.6 5.88 0 7.5-1.39 7.5-6.6m6.57.07c0 7.28-5.77 12.19-14.06 12.19-8.33 0-14.1-4.9-14.1-12.19 0-7.39 5.77-12.32 14.1-12.32 8.29 0 14.06 4.93 14.06 12.32M18.79 62.02c-4.04 2.03-6.53 5.81-6.53 10.65 0 4.77 2.49 8.5 6.53 10.52V62.02zM10.77 62.96C7.66 65.12 5.8 68.5 5.8 72.67c0 4.12 1.86 7.46 4.97 9.6V62.96zM12.54 37.47c0 4.04 3.03 6.32 6.32 7.13V30.64c-3.87 1.03-6.32 3.5-6.32 6.83m-.66 9.7c.62 3.74 3.2 5.96 6.98 6.91v-6.54c-.34-.5-.58-1.14-.69-1.94l-6.29 1.57zM10.77 45.84l-5.35 1.33c.53 3.17 2.47 5.23 5.35 6.37v-7.7zm0-14.63c-2.91 1.23-4.69 3.44-4.69 6.26 0 3.36 2.1 5.48 4.69 6.57V31.21zM3.51 16.02v6.3c-1.85-1.21-3.09-3-3.49-5.43l3.49-.87zM3.51 46.3v6.3c-1.85-1.21-3.09-3-3.49-5.43l3.49-.87zM3.51 1.95v10.8C1.84 11.53.67 9.7.67 7.19c0-2.16 1.04-3.96 2.84-5.24M3.6 64.5l-.29.32c-.07.07-.13.15-.2.23a2.8 2.8 0 00-.16.2c-.46.58-.86 1.19-1.2 1.85-.04.07-.07.14-.1.21-.05.11-.1.21-.15.32-.06.12-.1.24-.15.36-.23.55-.41 1.13-.55 1.73-.04.18-.08.37-.12.57l-.03.2-.06.39c-.04.29-.07.58-.09.88a13.987 13.987 0 000 1.85c.02.29.05.58.09.87.02.13.04.27.06.39l.03.19c.03.18.07.35.11.52.04.2.09.39.15.58.03.12.07.24.11.36.05.16.1.31.16.46.04.11.09.22.13.33.05.12.1.24.15.35.05.1.09.2.14.3.04.08.08.17.12.25a8.966 8.966 0 00.45.79c.03.05.07.11.1.16.06.1.13.19.19.28.14.2.28.39.43.58.05.06.11.13.16.2l.2.23c.11.13.23.26.36.38.04.04.08.08.12.13V64.3c-.04.07-.1.13-.16.2M3.51 32.17v10.8C1.84 41.75.68 39.92.68 37.42c-.01-2.17 1.03-3.97 2.83-5.25M206.96.23h-4.89v7.3zM277.93 30.44h-4.89v7.3z"/><path class="st1" d="M194.26.23v10.16L201.07.23z"/><path d="M265.17 30.44v10.17l6.81-10.17z"/><path class="st0" d="M183.5 14.82L193.26.23h-6.97L183.5 4.7z"/><path d="M254.6 45.03l9.76-14.59h-6.97l-2.79 4.48zM99.81 74.54l6.06 2.38c-1.76 5.17-6.71 7.96-13.09 7.96-8.43 0-14.17-4.9-14.17-12.18 0-7.39 5.73-12.33 14.17-12.33 6.47 0 11.47 2.9 13.16 8.22l-6.1 2.27c-.84-4-2.66-4.83-7.06-4.83-5.95 0-7.61 1.4-7.61 6.61 0 5.21 1.66 6.6 7.61 6.6 4.35-.02 6.18-.83 7.03-4.7zM278.98 84.53l-5.01-12.42v12.42zM265.98 67.22v16.33l.37.98h6.61zM279.99 75.88v8.65h3.49z"/></svg>