<?xml version="1.0" encoding="UTF-8"?>
<svg xmlns="http://www.w3.org/2000/svg" version="1.1" viewBox="0 0 2500 2500">
  <defs>
    <style>
      .cls-1 {
        fill: #fff;
      }

      .cls-1, .cls-2, .cls-3 {
        fill-rule: evenodd;
      }

      .cls-2 {
        fill: #b81d37;
      }

      .cls-3 {
        fill: #001c4e;
      }
    </style>
  </defs>
  <!-- Generator: Adobe Illustrator 28.7.1, SVG Export Plug-In . SVG Version: 1.2.0 Build 142)  -->
  <g>
    <g id="Layer_1">
      <g>
        <path class="cls-3" d="M2463,2045.2v-393.5H36.8v393.5h2426.3Z"/>
        <path class="cls-1" d="M349.2,1932.5h-12.9v-78.4h-110.4v78.4h-12.9v-165.5h12.9v76.4h110.4v-76.4h12.9v165.5ZM566.4,1932.5h-12.9v-165.5h12.9v165.5ZM783.3,1921.8h81.8v10.7h-94.6v-165.5h12.9v154.8h0ZM1135.4,1777.7h-72.3v62.9h65.3v10.7h-65.3v81.3h-12.9v-165.5h85.2v10.7h0ZM1335.5,1932.5h-12.9v-165.5h12.9v165.5ZM1678.1,1793.4c-20.1-11.4-38.8-16.7-58.7-16.7-42,0-73,31.1-73,73s24.5,73,76.7,73,32.3-3.6,45.4-10.2v-44.7h-35v-10.7h47.8v63.3c-19.7,9.5-39.5,14.1-58.7,14.1-51.4,0-90-36.4-90-85.4s37.6-84.4,88.8-84.4,33.5,3.6,56.8,14.1v14.6h0ZM1970.7,1777.7h-77.4v66.2h75.4v10.7h-75.4v67.2h79.3v10.7h-92.2v-165.5h90.3v10.7h0ZM2178.2,1777.7h26.9c30.3,0,43.7,13.6,43.7,32.3s-14.1,32.5-43.2,32.5h-27.4v-64.8ZM2165.3,1767v165.5h12.8v-79.3h22.3c19.9,0,26.2,2.7,46.1,34l28.9,45.4h15l-37.4-57.2c-7.8-11.6-14.3-21.1-22.1-25.2,21.1-7.8,31.5-21.1,31.5-40.3s-14.3-42.7-54.8-42.7h-42.5s0,0,0,0ZM38.4,848.3v803.3h1205.9v-803.3H38.4Z"/>
        <path class="cls-2" d="M1244.3,1651.7h1218.7v76.4h.2v-879.7h-1218.9v803.3h0Z"/>
        <path class="cls-3" d="M2463.2,848.3v-393.5H37v393.5h2426.3Z"/>
        <path class="cls-1" d="M348.3,588.1h-62.1v154.8h-12.9v-154.8h-62.1v-10.7h137.1v10.7ZM815.4,660.2c0,41.2-32,73-73.5,73s-74-31.8-74-73,32.5-73,74-73,73.5,31.8,73.5,73ZM829.2,660.2c0-47.6-38.6-84.9-87.8-84.9s-87.4,37.4-87.4,84.9,38.3,84.9,87.4,84.9c49.2,0,87.8-37.4,87.8-84.9ZM1309.6,577.4h12.9v165.5h-12.9v-146.8h-.5l-62.6,77.4-62.6-77.4h-.5v146.8h-12.9v-165.5h12.9l63.1,76.9,63.1-76.9h0ZM1809.7,577.4h12.9v165.5h-12.9v-146.8h-.5l-62.6,77.4-62.6-77.4h-.5v146.8h-12.9v-165.5h12.9l63.1,76.9,63.1-76.9ZM2229.2,654.1v88.8h-12.9v-88.8l-64.3-76.7h15.5l55.3,65.5,55.1-65.5h15.5l-64.3,76.7h0Z"/>
      </g>
    </g>
  </g>
</svg>