<svg width="632" height="59" viewBox="0 0 632 59"
    xmlns="http://www.w3.org/2000/svg">
    <path d="M32.53 57.69H24.1L23.98 57.41L0.120026 1.47H9.42002L9.54002 1.75L28.38 47.01L47.03 1.47H56.01L55.74 2.10999L32.53 57.69Z"/>
    <path d="M115.67 57.69H106.36L106.24 57.4L99.78 41.78H73.67L66.94 57.69H57.94L58.23 57.04L83.02 1.45999H90.9L91.02 1.73001L115.67 57.69ZM76.96 33.96H96.5L86.84 10.7L76.96 33.96Z"/>
    <path d="M184.04 57.69H175.93L175.79 57.52L139.71 14.16V57.69H131.42V1.47H139.62L139.76 1.63L175.76 44.75V1.45999H184.04V57.69V57.69Z"/>
    <path d="M283.59 57.69H275.31V32.53H239.49V57.69H231.2V1.47H239.49V24.73H275.31V1.47H283.59V57.69Z"/>
    <path d="M350.8 57.69H305.69V1.47H350.71V9.28H313.98V24.73H347.04V32.47H313.98V49.88H350.8V57.69V57.69Z"/>
    <path d="M396.53 58.94C380.16 58.94 370.39 49.78 370.39 34.43V1.47H378.67V33.18C378.67 45.09 384.68 51.13 396.53 51.13C408.39 51.13 414.4 45.09 414.4 33.18V1.47H422.69V34.43C422.7 49.77 412.92 58.94 396.53 58.94Z"/>
    <path d="M559.13 57.69H514.03V1.47H559.05V9.28H522.32V24.73H555.36V32.47H522.32V49.88H559.13V57.69V57.69Z"/>
    <path d="M631.73 57.69H623.61L623.47 57.52L587.39 14.16V57.69H579.1V1.47H587.29L587.43 1.63L623.44 44.75V1.45999H631.73V57.69Z"/>
    <path d="M468.89 58.95C445.27 58.95 441.86 49.97 441.34 43.22L441.3 42.73H449.76L449.83 43.11C450.85 49 456.39 51.4 468.96 51.4C473.8 51.4 477.77 50.72 480.77 49.38C484.34 47.87 486.14 45.6 486.14 42.61C486.14 40.45 485.58 38.85 484.48 37.86C483.33 36.83 481.37 35.95 478.49 35.17C476.75 34.71 472.63 33.83 466.58 32.64C459.2 31.17 454.09 29.77 451.4 28.48C445.59 25.7 442.64 21.46 442.64 15.87C442.64 5.47999 450.93 0.209991 467.27 0.209991C475.97 0.209991 482.24 1.51001 486.42 4.17001C489.99 6.44001 492.11 9.75 492.89 14.28L492.98 14.82H484.37L484.27 14.5C483.61 12.44 482.37 11.07 480.12 9.92001C477.43 8.50001 472.99 7.75 467.27 7.75C456.44 7.75 450.95 10.48 450.95 15.87C450.95 18.46 452.21 20.34 454.79 21.64C456.91 22.65 460.68 23.61 466.01 24.51C476.48 26.25 483.61 28.16 487.19 30.19C491.99 32.9 494.43 37.13 494.43 42.78C494.43 48.48 491.36 52.81 485.32 55.64C480.79 57.83 475.25 58.95 468.89 58.95Z"/>
</svg>
